<?xml version="1.0" encoding="UTF-8"?>
<svg version="1.1" xmlns="http://www.w3.org/2000/svg" width="735" height="735">
<path d="M0 0 C242.55 0 485.1 0 735 0 C735 242.55 735 485.1 735 735 C492.45 735 249.9 735 0 735 C0 492.45 0 249.9 0 0 Z " fill="#0E0D0D" transform="translate(0,0)"/>
<path d="M0 0 C1.83555167 0.00374539 1.83555167 0.00374539 3.7081852 0.00756645 C5.58539788 0.01156299 5.58539788 0.01156299 7.50053406 0.01564026 C10.14951664 0.01751283 12.79849648 0.01898217 15.44747925 0.01992798 C21.61598385 0.02298549 27.78446984 0.03112008 33.95296639 0.04127747 C40.99824225 0.05261647 48.0435192 0.05799295 55.08880198 0.0629729 C69.532045 0.07331027 83.97527365 0.09079641 98.41850281 0.11329651 C99.378372 2.34730449 100.33768227 4.58154973 101.29667664 6.81593323 C101.70143597 7.75773689 101.70143597 7.75773689 102.11437225 8.71856689 C104.17981544 13.53265723 106.17544242 18.36885071 108.10600281 23.23829651 C108.59955261 24.477005 108.59955261 24.477005 109.10307312 25.74073792 C112.45641352 34.17344811 115.76216284 42.62492756 119.07402039 51.07398987 C122.68902438 60.28518539 126.35516592 69.47516559 130.03886414 78.65907288 C134.68847047 90.25428449 139.27430618 101.87400467 143.84379578 113.50099182 C146.67253212 120.69635989 149.52384007 127.88165594 152.41850281 135.05079651 C156.06844165 144.11319219 159.55603615 153.23748691 163.04350281 162.36329651 C163.45197449 163.4319545 163.45197449 163.4319545 163.86869812 164.52220154 C168.9534103 177.8336414 173.97612319 191.16732521 178.89091492 204.54249573 C183.42702395 216.87387114 188.10910124 229.14232246 192.87260437 241.38697815 C196.39477475 250.44438204 199.86012655 259.52188806 203.29350281 268.61329651 C206.47915827 277.04482864 209.71418327 285.44713343 213.09819031 293.80079651 C214.83220275 298.15121825 216.46725028 302.53565056 218.09941101 306.92506409 C219.99255262 312.00639616 221.94417852 317.06300091 223.91850281 322.11329651 C226.35179966 328.3423244 228.73809013 334.58624894 231.07426453 340.85231018 C233.20210975 346.55445721 235.37113506 352.24048277 237.54350281 357.92579651 C245.20069646 377.9932336 245.20069646 377.9932336 247.73881531 386.07814026 C248.46296697 388.36236954 248.46296697 388.36236954 249.91850281 391.42579651 C250.48190432 395.58088264 249.88077437 396.92943178 248.22319031 400.69142151 C247.75945007 401.76045715 247.29570984 402.8294928 246.81791687 403.93092346 C246.12520691 405.50619812 246.12520691 405.50619812 245.41850281 407.11329651 C244.69841763 408.81866975 243.98204086 410.52561545 243.27006531 412.23439026 C242.91259216 413.08694397 242.55511902 413.93949768 242.18681335 414.81788635 C231.48772473 440.39243218 221.10603515 466.08170281 211.26712036 491.99952698 C211.00770157 492.68289124 210.74828278 493.36625549 210.48100281 494.07032776 C210.22444412 494.74627991 209.96788544 495.42223206 209.70355225 496.1186676 C205.38102346 507.49156872 200.91438842 518.80794289 196.41850281 530.11329651 C195.98457214 531.2088385 195.55064148 532.30438049 195.1035614 533.43312073 C193.86245617 536.55898825 192.6112588 539.68058876 191.35600281 542.80079651 C190.9857196 543.73440002 190.6154364 544.66800354 190.2339325 545.62989807 C189.89136414 546.47391174 189.54879578 547.31792542 189.19584656 548.18751526 C188.89928162 548.92574524 188.60271667 549.66397522 188.29716492 550.42457581 C187.41850281 552.11329651 187.41850281 552.11329651 185.41850281 553.11329651 C178.17669703 535.53436349 171.17944042 517.88348704 164.41850281 500.11329651 C162.43529482 494.90383328 160.45012891 489.69512076 158.46311951 484.48710632 C157.63097361 482.30381218 156.80122707 480.11961788 155.97172546 477.93531799 C153.27071728 470.8397229 150.47875309 463.79545399 147.52861023 456.79884338 C145.89284042 452.84162589 144.42946923 448.82951998 142.98100281 444.80079651 C140.48622224 437.94908637 137.86773378 431.16506899 135.12944031 424.40626526 C132.92427945 418.91996336 130.83940251 413.38729558 128.73100281 407.86329651 C125.19991036 398.62699535 121.54896029 389.44808775 117.79350281 380.30079651 C114.28431867 371.75000165 110.8716661 363.17689081 107.61723328 354.52613831 C104.74700056 346.91807544 101.76929278 339.35435929 98.77998352 331.79252625 C92.79934406 316.66370542 86.9225424 301.50244617 81.23239136 286.26159668 C80.43433131 284.12416747 79.6355502 281.98700865 78.8367157 279.84986877 C77.79388167 277.059781 76.75438608 274.26848319 75.71708679 271.47633362 C71.89899451 261.22875039 67.72627369 251.1647619 63.41850281 241.11329651 C63.08850281 391.26329651 62.75850281 541.41329651 62.41850281 696.11329651 C28.17218459 700.67947227 28.17218459 700.67947227 16.40514755 702.17241478 C14.19198298 702.45337874 11.9790072 702.73579469 9.7660675 703.01852417 C3.50414274 703.81845466 -2.75795998 704.61696958 -9.02046204 705.41236877 C-12.9197056 705.9077109 -16.81864751 706.40537005 -20.71740341 706.90453529 C-22.1820954 707.09160334 -23.64689962 707.27779495 -25.11182022 707.46306419 C-27.13405469 707.71887725 -29.15588224 707.97790088 -31.1776886 708.23707581 C-32.32186249 708.38267441 -33.46603638 708.52827301 -34.6448822 708.67828369 C-37.78125972 709.09399212 -37.78125972 709.09399212 -41.58149719 710.11329651 C-44.55149719 710.11329651 -47.52149719 710.11329651 -50.58149719 710.11329651 C-50.58149719 476.14329651 -50.58149719 242.17329651 -50.58149719 1.11329651 C-33.68334589 0.53060164 -16.89255519 -0.04306721 0 0 Z " fill="#E3091F" transform="translate(180.5814971923828,15.886703491210938)"/>
<path d="M0 0 C1.33736879 0.00046212 2.6747376 0.00088066 4.01210642 0.00125504 C7.23485257 0.00232348 10.45759788 0.00382422 13.68034363 0.0057373 C13.85006929 66.26117332 14.01346666 132.51662424 14.17129928 198.77208966 C14.18031536 202.55637357 14.18934232 206.34065746 14.1983695 210.12494135 C14.73016622 433.21939438 14.73016622 433.21939438 14.74350214 599.78750819 C14.74284059 601.95319457 14.7421983 604.11888096 14.74155807 606.28456736 C14.73121573 640.85829761 14.71247064 675.43201993 14.68034363 710.0057373 C13.10430252 710.01771145 11.52823459 710.02618348 9.9521637 710.03321838 C9.0744953 710.03831956 8.1968269 710.04342073 7.29256248 710.04867649 C3.44584334 709.98544481 -0.29120415 709.49511665 -4.09309387 708.93933105 C-4.91511292 708.82506775 -5.73713196 708.71080444 -6.58406067 708.59307861 C-9.28849142 708.2159254 -11.99151518 707.8295147 -14.69465637 707.4432373 C-17.59683023 707.03627277 -20.49933481 706.63171955 -23.40184021 706.22712708 C-25.4510873 705.94122888 -27.50021864 705.65449989 -29.54924011 705.36698914 C-43.40827685 703.42452983 -57.28128952 701.58518485 -71.15235901 699.73104858 C-74.40355238 699.29612155 -77.6545848 698.86000825 -80.90559387 698.42370605 C-82.35591003 698.23031647 -82.35591003 698.23031647 -83.83552551 698.03302002 C-85.1857782 697.85165497 -85.1857782 697.85165497 -86.56330872 697.66662598 C-87.34104645 697.56258957 -88.11878418 697.45855316 -88.92008972 697.35136414 C-91.72782651 696.94694563 -94.52215464 696.47531885 -97.31965637 696.0057373 C-98.40320476 673.89886672 -98.49038665 651.81556813 -98.52026498 629.68756592 C-98.52838902 624.45485472 -98.54204391 619.2221573 -98.55497742 613.98945618 C-98.5765729 604.95536552 -98.59477777 595.92127336 -98.61058235 586.88717079 C-98.63343728 573.82588275 -98.66155705 560.76461007 -98.69090163 547.70333519 C-98.73838792 526.50474494 -98.78170253 505.30614835 -98.82234192 484.10754395 C-98.86179399 463.53299467 -98.90324295 442.95845099 -98.94734192 422.38391113 C-98.95006619 421.11257056 -98.95279046 419.84122999 -98.95559729 418.53136394 C-98.96927836 412.1524885 -98.98299832 405.77361315 -98.9967376 399.39473784 C-99.11040393 346.59841606 -99.21727821 293.8020821 -99.31965637 241.0057373 C-101.0939177 244.80941396 -102.86626272 248.61397623 -104.63696289 252.41931152 C-105.23751195 253.7092602 -105.8385519 254.99898048 -106.44012451 256.28845215 C-113.67745286 271.80363255 -120.17729713 287.56333625 -126.50715637 303.4666748 C-129.47287476 310.90865902 -132.51298304 318.2989906 -135.88215637 325.5682373 C-137.95154334 330.06915395 -139.69098474 334.62571058 -141.35090637 339.29089355 C-142.33235822 342.04133322 -143.33726969 344.77874138 -144.38215637 347.5057373 C-144.68250793 348.2997998 -144.9828595 349.0938623 -145.29231262 349.9119873 C-146.36116618 352.09033525 -147.51238003 353.40837124 -149.31965637 355.0057373 C-150.40755444 352.57019023 -151.48997876 350.13242734 -152.56965637 347.6932373 C-152.87000793 347.02228027 -153.1703595 346.35132324 -153.47981262 345.66003418 C-155.57977051 340.90161897 -157.41095839 336.08613485 -159.16340637 331.19006348 C-160.51669809 327.46308208 -161.92448607 323.75903018 -163.34309387 320.05651855 C-163.74963196 318.99511909 -163.74963196 318.99511909 -164.16438293 317.91227722 C-165.00710969 315.71399553 -165.85077219 313.51607492 -166.69465637 311.3182373 C-167.80736448 308.41877675 -168.91935638 305.51904305 -170.03059387 302.61901855 C-170.3051088 301.90289398 -170.57962372 301.18676941 -170.86245728 300.44894409 C-172.73793288 295.54825907 -174.58335708 290.63693106 -176.41731262 285.72058105 C-178.97944361 278.86109685 -181.6483534 272.04882347 -184.38215637 265.2557373 C-184.99413879 263.72626465 -184.99413879 263.72626465 -185.6184845 262.16589355 C-187.68668113 257.01010479 -189.78830484 251.87077589 -191.93684387 246.7479248 C-193.8554033 242.15985371 -195.67220106 237.55006816 -197.38215637 232.8807373 C-199.30913614 227.62204016 -201.34474541 222.47456975 -203.75325012 217.4119873 C-205.38404928 210.4839026 -202.45002893 204.30268932 -199.63215637 198.1307373 C-198.81444858 196.28032317 -197.99955097 194.42866571 -197.18684387 192.5760498 C-196.73406067 191.54641113 -196.28127747 190.51677246 -195.81477356 189.45593262 C-192.87638647 182.67518697 -190.06894827 175.83973913 -187.25715637 169.0057373 C-186.80199142 167.90038635 -186.80199142 167.90038635 -186.33763123 166.77270508 C-181.46392611 154.92395744 -176.77460484 143.01886759 -172.31965637 131.0057373 C-171.36309316 128.44257414 -170.4040739 125.88033327 -169.44465637 123.3182373 C-169.21165833 122.69537842 -168.97866028 122.07251953 -168.73860168 121.43078613 C-162.61801884 105.10451544 -156.29022044 88.86269868 -149.7849884 72.68615723 C-147.12186167 66.05038442 -144.55856343 59.39146896 -142.07746887 52.6854248 C-139.07519601 44.6310001 -135.92453554 36.63141311 -132.8084259 28.6204834 C-130.21056187 21.93433474 -127.64499173 15.2379476 -125.13215637 8.51940918 C-124.85951965 7.79139099 -124.58688293 7.0633728 -124.3059845 6.31329346 C-123.64354033 4.5442334 -122.98154976 2.77500351 -122.31965637 1.0057373 C-108.86945558 0.873691 -95.41924058 0.74320418 -81.96900654 0.61458588 C-75.72024114 0.55478546 -69.47148137 0.49449294 -63.22273254 0.4329834 C-57.16669022 0.37339042 -51.11063567 0.31521055 -45.05457115 0.25791931 C-42.77030663 0.23607901 -40.48604653 0.21377075 -38.20179176 0.19093323 C-25.46753077 0.06396627 -12.73494844 -0.00769288 0 0 Z " fill="#E1081E" transform="translate(582.3196563720703,15.9942626953125)"/>
<path d="M0 0 C0.33 0 0.66 0 1 0 C1.33 150.15 1.66 300.3 2 455 C1.34 455 0.68 455 0 455 C-0.86812015 430.39120726 -1.14332677 405.81335498 -1.11606562 381.19053447 C-1.1116582 376.17201624 -1.11321467 371.15349888 -1.1139679 366.13497925 C-1.11448675 357.48462421 -1.11140761 348.83427683 -1.10573006 340.18392372 C-1.09752718 327.67768728 -1.09499094 315.17145447 -1.09374207 302.66521563 C-1.09156519 282.36396654 -1.08494248 262.06272151 -1.07543945 241.76147461 C-1.06622977 222.06616231 -1.05916643 202.37085113 -1.05493164 182.67553711 C-1.05466892 181.45707725 -1.05440619 180.23861739 -1.05413551 178.9832345 C-1.05283027 172.86925343 -1.05156661 166.75527235 -1.05032361 160.64129126 C-1.03999355 110.09419137 -1.02241284 59.54709588 -1 9 C-1.66 9 -2.32 9 -3 9 C-3.103125 10.258125 -3.20625 11.51625 -3.3125 12.8125 C-3.64657811 15.50898757 -3.82977893 16.76317068 -5.4375 19 C-7 20 -7 20 -9 20 C-7.55676531 15.26210835 -5.62773267 11.01141849 -3.375 6.625 C-2.88773437 5.66400391 -2.88773437 5.66400391 -2.390625 4.68359375 C-1.59742593 3.12052499 -0.79922969 1.55999378 0 0 Z " fill="#440105" transform="translate(483,256)"/>
<path d="M0 0 C0.33 0 0.66 0 1 0 C1 233.97 1 467.94 1 709 C3.97 709 6.94 709 10 709 C6.34346173 711.43769218 4.30999899 711.23944439 0 711 C-1 710 -1 710 -1.12204048 708.00754547 C-1.12063666 707.1217315 -1.11923283 706.23591754 -1.11778647 705.32326072 C-1.11860034 704.30328722 -1.11941422 703.28331371 -1.12025276 702.23243192 C-1.1160214 701.09597367 -1.11179004 699.95951542 -1.10743046 698.78861904 C-1.10689593 697.58871988 -1.1063614 696.38882072 -1.10581067 695.15256098 C-1.1032867 691.79198056 -1.09622167 688.43146288 -1.08732699 685.07089674 C-1.07877158 681.42626399 -1.07599226 677.78162632 -1.07250541 674.13698584 C-1.06557736 667.7393998 -1.05490451 661.34182832 -1.04183006 654.94425201 C-1.02240534 645.43118477 -1.00868633 635.91811539 -0.99616829 626.40503685 C-0.97495111 610.40507207 -0.94905914 594.405118 -0.92053413 578.40516472 C-0.89229207 562.55541214 -0.86610864 546.70565838 -0.84269524 530.8558979 C-0.84051261 529.37954169 -0.84051261 529.37954169 -0.83828588 527.8733601 C-0.83090748 522.87523722 -0.82356606 517.87711428 -0.81623887 512.87899131 C-0.76422788 477.44593206 -0.70757002 442.0128816 -0.64819336 406.57983398 C-0.59050813 372.14982439 -0.53491906 337.71981246 -0.48217773 303.28979492 C-0.48055215 302.22914675 -0.47892657 301.16849858 -0.47725173 300.07570955 C-0.46092979 289.42457529 -0.44465058 278.77344096 -0.42840267 268.12230658 C-0.39530067 246.42329861 -0.36191346 224.72429108 -0.32835388 203.02528381 C-0.32603971 201.52864405 -0.32603971 201.52864405 -0.32367879 200.00176913 C-0.22056232 133.33450509 -0.11079665 66.66725166 0 0 Z " fill="#4A0002" transform="translate(129,17)"/>
<path d="M0 0 C3.34905453 3.34905453 3.89470285 5.49378854 5 10 C4.34 10 3.68 10 3 10 C2.67 9.34 2.34 8.68 2 8 C1.99739563 9.42453598 1.99739563 9.42453598 1.99473864 10.87785047 C1.89186115 67.1015034 1.78373672 123.32514423 1.66888306 179.54877403 C1.65510927 186.29203742 1.64138452 193.03530091 1.62768555 199.77856445 C1.62632146 200.44961806 1.62495738 201.12067167 1.62355196 201.81206024 C1.57932137 223.58237822 1.53833253 245.35270085 1.49901587 267.12302821 C1.45746868 290.11873169 1.41224658 313.11442593 1.36312145 336.11011463 C1.33379475 349.89405129 1.30743823 363.67798716 1.28482103 377.46193648 C1.26905415 386.90021101 1.24965268 396.33847359 1.22733159 405.77673488 C1.21454197 411.23090086 1.20341361 416.68505757 1.19658089 422.13923454 C1.1903014 427.12372575 1.179501 432.1081851 1.1649667 437.09265888 C1.16050712 438.90423594 1.15776644 440.71581812 1.15683801 442.52740043 C1.15534361 444.97322208 1.14782115 447.41894965 1.1386652 449.86475277 C1.13968787 450.58247686 1.14071054 451.30020095 1.14176419 452.03967425 C1.1141458 456.8858542 1.1141458 456.8858542 0 458 C-2.35313555 458.07271741 -4.70833668 458.08370868 -7.0625 458.0625 C-8.35285156 458.05347656 -9.64320313 458.04445313 -10.97265625 458.03515625 C-12.47119141 458.01775391 -12.47119141 458.01775391 -14 458 C-14 457.67 -14 457.34 -14 457 C-9.38 456.67 -4.76 456.34 0 456 C0 305.52 0 155.04 0 0 Z " fill="#230000" transform="translate(243,256)"/>
<path d="M0 0 C1.49828872 3.88235819 0.43110582 6.43449288 -0.9375 10.25 C-1.31777344 11.32765625 -1.69804687 12.4053125 -2.08984375 13.515625 C-2.39019531 14.33546875 -2.69054687 15.1553125 -3 16 C-3.66 16 -4.32 16 -5 16 C-4.938125 16.66 -4.87625 17.32 -4.8125 18 C-5.15954183 23.55266933 -7.74235425 28.45831081 -10.0625 33.4375 C-12.06707018 37.84601833 -13.14595782 42.24658104 -14 47 C-13.34 47 -12.68 47 -12 47 C-12.061875 47.70125 -12.12375 48.4025 -12.1875 49.125 C-11.95363659 52.71090567 -10.67869406 54.82913345 -9 58 C-7.38050093 61.79403772 -6.10549547 65.35530544 -5.4375 69.4375 C-5.293125 70.283125 -5.14875 71.12875 -5 72 C-4.34 72.33 -3.68 72.66 -3 73 C-0.78696793 77.94677757 0.29157202 82.63618815 1 88 C2.485 88.495 2.485 88.495 4 89 C4.84375 91.2578125 4.84375 91.2578125 5.5 94.125 C6.62839376 98.66780804 8.05809148 102.72780125 10 107 C11.02403415 109.58390012 12.03281981 112.17323678 13.03515625 114.765625 C14.01322403 117.21418026 14.01322403 117.21418026 16 120 C16.144375 120.78375 16.28875 121.5675 16.4375 122.375 C16.86544967 125.08536296 16.86544967 125.08536296 18.5 127.4375 C20.21322271 130.36425546 20.52306812 132.66147681 21 136 C21.65509503 138.00382009 22.31974363 140.00458132 23 142 C23 142.66 23 143.32 23 144 C23.66 144 24.32 144 25 144 C25.12375 145.134375 25.2475 146.26875 25.375 147.4375 C25.58125 148.613125 25.7875 149.78875 26 151 C26.66 151.33 27.32 151.66 28 152 C27.67 152.66 27.34 153.32 27 154 C27.66 154 28.32 154 29 154 C29.12375 154.78375 29.2475 155.5675 29.375 156.375 C29.79117993 159.14057822 29.79117993 159.14057822 32 161 C32.2475 162.5159375 32.2475 162.5159375 32.5 164.0625 C32.665 165.031875 32.83 166.00125 33 167 C33.66 167.33 34.32 167.66 35 168 C35.59765625 169.890625 35.59765625 169.890625 36.0625 172.25 C36.22621094 173.05824219 36.38992188 173.86648438 36.55859375 174.69921875 C36.70425781 175.45847656 36.84992188 176.21773437 37 177 C37.20625 178.010625 37.4125 179.02125 37.625 180.0625 C37.74875 180.701875 37.8725 181.34125 38 182 C38.66 182 39.32 182 40 182 C40.33 179.69 40.66 177.38 41 175 C41.66 175 42.32 175 43 175 C42.5950141 180.26481665 41.89400067 182.4798234 38 186 C36.91210193 183.56445293 35.82967761 181.12669004 34.75 178.6875 C34.44964844 178.01654297 34.14929688 177.34558594 33.83984375 176.65429688 C31.73988586 171.89588167 29.90869799 167.08039754 28.15625 162.18432617 C26.80295828 158.45734478 25.3951703 154.75329287 23.9765625 151.05078125 C23.57002441 149.98938179 23.57002441 149.98938179 23.15527344 148.90653992 C22.31254668 146.70825822 21.46888419 144.51033761 20.625 142.3125 C19.51229189 139.41303944 18.4003 136.51330575 17.2890625 133.61328125 C17.01454758 132.89715668 16.74003265 132.1810321 16.4571991 131.44320679 C14.58172349 126.54252176 12.73629929 121.63119375 10.90234375 116.71484375 C8.34021276 109.85535955 5.67130297 103.04308617 2.9375 96.25 C2.52951172 95.23035156 2.12152344 94.21070313 1.70117188 93.16015625 C-0.36702476 88.00436748 -2.46864846 82.86503858 -4.6171875 77.7421875 C-6.53574693 73.1541164 -8.35254469 68.54433085 -10.0625 63.875 C-11.98947977 58.61630286 -14.02508904 53.46883245 -16.43359375 48.40625 C-18.14867055 41.12013062 -14.81671137 34.55187067 -11.875 28.0625 C-11.06010032 26.21663 -10.24631525 24.37026757 -9.43359375 22.5234375 C-9.02608887 21.60401367 -8.61858398 20.68458984 -8.19873047 19.73730469 C-6.37861963 15.58107602 -4.65266682 11.38789932 -2.9375 7.1875 C-2.6389209 6.45861572 -2.3403418 5.72973145 -2.03271484 4.97875977 C-1.35371024 3.31975896 -0.67661 1.65997887 0 0 Z " fill="#A5101D" transform="translate(395,185)"/>
<path d="M0 0 C1.85478553 2.7821783 2.89215133 5.0791546 4.0625 8.1875 C4.50980469 9.37085938 4.95710938 10.55421875 5.41796875 11.7734375 C5.94550292 13.18222038 6.47283361 14.59107946 7 16 C7.60008898 17.59641862 8.20036064 19.19276858 8.80078125 20.7890625 C12.14640717 29.69393712 15.47858839 38.60383696 18.80783081 47.5148468 C20.15770988 51.12683224 21.50897224 54.73829941 22.8604126 58.34970093 C23.53303412 60.14815322 24.20503831 61.94683652 24.87640381 63.74575806 C25.83013321 66.30113311 26.78595642 68.85571646 27.7421875 71.41015625 C28.02626465 72.17285828 28.3103418 72.9355603 28.60302734 73.72137451 C29.8909924 77.15629855 31.22797057 80.51832049 32.76611328 83.84936523 C34 87 34 87 33 90 C32.01233987 87.79513181 31.03481484 85.58662689 30.0625 83.375 C29.64581055 82.44880859 29.64581055 82.44880859 29.22070312 81.50390625 C27.54839589 77.67573306 26.5038692 74.14575924 26 70 C25.34 70 24.68 70 24 70 C23.82984375 69.4021167 23.6596875 68.8042334 23.484375 68.18823242 C21.61444255 61.77090773 19.41121995 55.54450645 17 49.3125 C16.48566406 47.96575195 16.48566406 47.96575195 15.9609375 46.59179688 C14.486592 42.75118311 12.99201566 38.93195069 11.33984375 35.1640625 C10.19614962 32.46321047 9.31947981 29.88824452 8.5625 27.0625 C7.21355945 22.36273371 5.24444659 18.33410376 3 14 C3 13.34 3 12.68 3 12 C2.34 12 1.68 12 1 12 C0.67 8.04 0.34 4.08 0 0 Z " fill="#C61E31" transform="translate(346,187)"/>
<path d="M0 0 C0 0.33 0 0.66 0 1 C-7.68402071 2.0493355 -15.36880357 3.09288476 -23.05458832 4.12921143 C-26.62401946 4.61068372 -30.19316608 5.09408713 -33.76171875 5.58203125 C-37.2105475 6.05353051 -40.66004893 6.5197905 -44.11006165 6.98254395 C-46.05575294 7.24487695 -48.00072557 7.51252264 -49.94567871 7.78027344 C-56.02067647 8.59068079 -61.8706008 9.21412748 -68 9 C-68 8.67 -68 8.34 -68 8 C-65.69 8 -63.38 8 -61 8 C-61 7.34 -61 6.68 -61 6 C-59.91332031 5.92652344 -59.91332031 5.92652344 -58.8046875 5.8515625 C-57.35449219 5.73941406 -57.35449219 5.73941406 -55.875 5.625 C-54.92367187 5.55539062 -53.97234375 5.48578125 -52.9921875 5.4140625 C-49.98706451 5.10512504 -49.98706451 5.10512504 -47.234375 3.9921875 C-42.92933207 2.67155839 -38.85355565 2.62089404 -34.375 2.5 C-27.69503791 2.25391523 -21.33949752 1.67797452 -14.765625 0.41015625 C-9.8606542 -0.31727586 -4.94486218 -0.15781475 0 0 Z " fill="#D81B30" transform="translate(219,714)"/>
<path d="M0 0 C2.49291382 3.0302145 3.90176743 5.91703406 5.26953125 9.5859375 C5.68066162 10.67511475 6.09179199 11.76429199 6.51538086 12.88647461 C7.15745483 14.61329468 7.15745483 14.61329468 7.8125 16.375 C10.54759969 23.63194543 13.28594744 30.85046598 16.4375 37.9375 C18.88965589 43.50174043 20.62309111 49.0817074 22 55 C21.34 55 20.68 55 20 55 C18.14223235 51.86501708 17.79859524 49.62528568 18 46 C17.34 46 16.68 46 16 46 C15.80664062 45.31292969 15.61328125 44.62585938 15.4140625 43.91796875 C15.15367187 43.01691406 14.89328125 42.11585938 14.625 41.1875 C14.36976563 40.29417969 14.11453125 39.40085937 13.8515625 38.48046875 C13.04733339 35.79532104 13.04733339 35.79532104 11 33 C10.50249119 31.63868467 10.0473985 30.26146095 9.625 28.875 C8.59609424 25.65837037 7.4246758 22.62392167 6 19.5625 C3.12985496 13.28337042 1.28502121 6.77338283 0 0 Z " fill="#2E0304" transform="translate(388,257)"/>
<path d="M0 0 C0.33 0.66 0.66 1.32 1 2 C1.66 2 2.32 2 3 2 C3.14695312 2.54785156 3.29390625 3.09570312 3.4453125 3.66015625 C5.12953788 9.61302181 7.25295909 15.30282637 9.58959961 21.02954102 C11.80461474 26.4665203 13.88097041 31.94769269 15.9074707 37.45751953 C17.07424169 40.6105355 18.29983227 43.71372839 19.6640625 46.78515625 C20.94282234 49.86240581 21.29778388 51.72437727 21 55 C18.70097399 51.55146098 17.33901501 47.97293802 15.875 44.125 C15.57295654 43.33996094 15.27091309 42.55492187 14.9597168 41.74609375 C13.96855864 39.16579134 12.98348271 36.58323715 12 34 C11.48348877 32.64406738 11.48348877 32.64406738 10.95654297 31.26074219 C8.05319931 23.63593508 8.05319931 23.63593508 6.84130859 20.43408203 C6.52887207 19.61020996 6.21643555 18.78633789 5.89453125 17.9375 C5.58854004 17.13054687 5.28254883 16.32359375 4.96728516 15.4921875 C3.61715347 12.01360489 2.18422276 8.56979968 0.7409668 5.12890625 C0 3 0 3 0 0 Z " fill="#320104" transform="translate(343,177)"/>
<path d="M0 0 C0.66 0 1.32 0 2 0 C3.34394372 3.32916008 4.67485873 6.66331336 6 10 C6.29648437 10.73734375 6.59296875 11.4746875 6.8984375 12.234375 C8.1047712 15.31590069 9.02696278 18.16477253 9.5625 21.4375 C9.706875 22.283125 9.85125 23.12875 10 24 C10.66 24.33 11.32 24.66 12 25 C14.21303207 29.94677757 15.29157202 34.63618815 16 40 C17.485 40.495 17.485 40.495 19 41 C19 41.99 19 42.98 19 44 C18.01 44 17.02 44 16 44 C15.61328125 42.96101563 15.2265625 41.92203125 14.828125 40.8515625 C11.49774583 31.89349224 11.49774583 31.89349224 8 23 C6.1904996 18.52225325 4.46058459 14.01626306 2.75 9.5 C2.47929687 8.79230469 2.20859375 8.08460938 1.9296875 7.35546875 C0 2.23284472 0 2.23284472 0 0 Z " fill="#8E0E17" transform="translate(380,233)"/>
<path d="M0 0 C2.13572931 2.13572931 2.69979385 3.46724406 3.734375 6.26171875 C4.05857422 7.12692139 4.38277344 7.99212402 4.71679688 8.88354492 C5.05775391 9.8088501 5.39871094 10.73415527 5.75 11.6875 C6.46240872 13.5941737 7.17595942 15.50042108 7.890625 17.40625 C8.24447266 18.35113281 8.59832031 19.29601562 8.96289062 20.26953125 C10.87489291 25.30339039 12.92219123 30.28139622 14.96875 35.26171875 C16 38 16 38 16 40 C15.34 40 14.68 40 14 40 C13.65066406 39.07316406 13.30132812 38.14632812 12.94140625 37.19140625 C12.48636719 35.99386719 12.03132813 34.79632812 11.5625 33.5625 C11.11003906 32.36753906 10.65757812 31.17257812 10.19140625 29.94140625 C9.2855174 27.15554277 9.2855174 27.15554277 8 26 C7.95936168 24.33382885 7.957279 22.66611905 8 21 C7.34 21 6.68 21 6 21 C-0.32185629 5.47155689 -0.32185629 5.47155689 0 0 Z " fill="#370306" transform="translate(350,529)"/>
<path d="M0 0 C3.19841576 2.62923595 4.22742997 5.63853476 5.6640625 9.4609375 C6.02037247 10.40231064 6.02037247 10.40231064 6.38388062 11.36270142 C6.88347825 12.68761749 7.37913567 14.01402519 7.87109375 15.34179688 C8.62101668 17.36425743 9.38362173 19.38156811 10.1484375 21.3984375 C14.18028995 32.13089943 14.18028995 32.13089943 15 37 C11.75254486 32.86687528 10 30.36067372 10 25 C9.01 24.67 8.02 24.34 7 24 C7.33 22.68 7.66 21.36 8 20 C7.34 20 6.68 20 6 20 C5.81824219 19.34773438 5.63648438 18.69546875 5.44921875 18.0234375 C4.30103006 14.03127376 3.1757413 10.35148261 1.3125 6.625 C0 4 0 4 0 0 Z " fill="#C81E30" transform="translate(316,112)"/>
<path d="M0 0 C-4.16924631 2.77949754 -6.44271797 3.18817414 -11.4375 3.5 C-14.89448578 3.71630302 -17.71046711 3.90348904 -21 5 C-22.33525717 5.07973476 -23.67412083 5.10771338 -25.01171875 5.09765625 C-26.14770508 5.09282227 -26.14770508 5.09282227 -27.30664062 5.08789062 C-28.09232422 5.07951172 -28.87800781 5.07113281 -29.6875 5.0625 C-30.48478516 5.05798828 -31.28207031 5.05347656 -32.10351562 5.04882812 C-34.06904257 5.0370585 -36.03453085 5.01912348 -38 5 C-38 4.67 -38 4.34 -38 4 C-33.87495128 3.42341326 -29.74898697 2.85403813 -25.62207031 2.29101562 C-24.22141397 2.09893298 -22.82101522 1.90496127 -21.42089844 1.70898438 C-7.101645 -0.29285134 -7.101645 -0.29285134 0 0 Z " fill="#3B0407" transform="translate(189,719)"/>
<path d="M0 0 C0.33 0 0.66 0 1 0 C1.28571429 8.57142857 1.28571429 8.57142857 -1 12 C-1.66 12 -2.32 12 -3 12 C-2.938125 12.7425 -2.87625 13.485 -2.8125 14.25 C-3.03602339 17.52834303 -4.01809807 18.46316552 -6 21 C-6.71433121 23.64934822 -6.71433121 23.64934822 -7 26 C-7.66 26 -8.32 26 -9 26 C-9 26.99 -9 27.98 -9 29 C-9.66 29 -10.32 29 -11 29 C-8.88355257 22.35831389 -6.4326092 15.89538217 -3.8125 9.4375 C-3.44447266 8.52419922 -3.07644531 7.61089844 -2.69726562 6.66992188 C-1.80056454 4.44563736 -0.90144402 2.22236555 0 0 Z " fill="#300305" transform="translate(419,437)"/>
<path d="M0 0 C1.49828872 3.88235819 0.43110582 6.43449288 -0.9375 10.25 C-1.31777344 11.32765625 -1.69804687 12.4053125 -2.08984375 13.515625 C-2.39019531 14.33546875 -2.69054687 15.1553125 -3 16 C-3.66 16 -4.32 16 -5 16 C-4.938125 16.66 -4.87625 17.32 -4.8125 18 C-5.14673079 23.34769266 -7.46356988 28.31735978 -10 33 C-11.31152506 29.06542483 -10.17634028 26.47510551 -8.9375 22.6875 C-8.71360596 21.98560547 -8.48971191 21.28371094 -8.2590332 20.56054688 C-5.94910374 13.50960003 -3.06964162 6.75110185 0 0 Z " fill="#B81426" transform="translate(395,185)"/>
<path d="M0 0 C3.14865744 3.62142883 4.56853221 7.62133157 6.1875 12.0625 C6.46013672 12.78244141 6.73277344 13.50238281 7.01367188 14.24414062 C8.1408185 17.28658902 9 19.72988458 9 23 C9.99 23 10.98 23 12 23 C12.33 26.63 12.66 30.26 13 34 C10.78386711 30.67580067 9.53425285 27.28845826 8.1875 23.5625 C5.93219814 17.40830833 3.51658742 11.36014427 0.8828125 5.35546875 C0 3 0 3 0 0 Z " fill="#D32030" transform="translate(311,425)"/>
<path d="M0 0 C0.33 0.66 0.66 1.32 1 2 C3.57951874 2.69093896 3.57951874 2.69093896 6.5625 3.125 C7.57441406 3.29257812 8.58632813 3.46015625 9.62890625 3.6328125 C10.80259766 3.81457031 10.80259766 3.81457031 12 4 C12 4.33 12 4.66 12 5 C5.36507139 5.18956939 -0.93984119 4.45561368 -7.5 3.5 C-8.51320313 3.35691406 -9.52640625 3.21382812 -10.5703125 3.06640625 C-13.04761782 2.71584418 -15.52409137 2.36027153 -18 2 C-18 1.67 -18 1.34 -18 1 C-15.75013201 0.83156069 -13.50009983 0.66531346 -11.25 0.5 C-9.37054687 0.36078125 -9.37054687 0.36078125 -7.453125 0.21875 C-4.97265229 0.06161598 -2.48544483 0 0 0 Z " fill="#CA1A2F" transform="translate(523,713)"/>
<path d="M0 0 C1 2 1 2 0.07421875 4.8984375 C-0.61220703 6.61933594 -0.61220703 6.61933594 -1.3125 8.375 C-1.98732422 10.08816406 -1.98732422 10.08816406 -2.67578125 11.8359375 C-3.70143036 14.28660351 -4.76698428 16.64974468 -6 19 C-6.33 19 -6.66 19 -7 19 C-7.33 15.7 -7.66 12.4 -8 9 C-7.67 9.66 -7.34 10.32 -7 11 C-6.34 11 -5.68 11 -5 11 C-4.731875 10.29875 -4.46375 9.5975 -4.1875 8.875 C-2.9318551 5.8350176 -1.49764877 2.9272226 0 0 Z " fill="#B0111F" transform="translate(447,336)"/>
<path d="M0 0 C1.22419163 3.93795909 0.48320272 6.16112237 -1 10 C-1.66 10 -2.32 10 -3 10 C-3.12375 10.70125 -3.2475 11.4025 -3.375 12.125 C-4.4285351 16.97126147 -5.3100168 20.59231059 -9 24 C-6.80148049 15.63019764 -3.50929804 7.88172441 0 0 Z " fill="#3C0305" transform="translate(467,290)"/>
<path d="M0 0 C1 2 1 2 0.28735352 4.24658203 C-0.09493408 5.15778809 -0.47722168 6.06899414 -0.87109375 7.0078125 C-1.28037109 7.99394531 -1.68964844 8.98007812 -2.11132812 9.99609375 C-2.7677832 11.54490234 -2.7677832 11.54490234 -3.4375 13.125 C-4.0881543 14.68541016 -4.0881543 14.68541016 -4.75195312 16.27734375 C-5.82775422 18.85453757 -6.91069378 21.42849195 -8 24 C-10 21 -10 21 -10 19 C-9.01 19 -8.02 19 -7 19 C-6.24758891 15.34543185 -5.59950296 11.68266103 -5 8 C-4.34 8 -3.68 8 -3 8 C-3 6.68 -3 5.36 -3 4 C-2.34 4 -1.68 4 -1 4 C-0.67 2.68 -0.34 1.36 0 0 Z " fill="#D82237" transform="translate(377,541)"/>
<path d="M0 0 C0.66 0 1.32 0 2 0 C2 1.98 2 3.96 2 6 C1.67 5.34 1.34 4.68 1 4 C0.34 4 -0.32 4 -1 4 C-1.103125 5.258125 -1.20625 6.51625 -1.3125 7.8125 C-1.64657811 10.50898757 -1.82977893 11.76317068 -3.4375 14 C-5 15 -5 15 -7 15 C-5.45454854 9.52067211 -2.84456788 4.88570819 0 0 Z " fill="#290304" transform="translate(481,261)"/>
<path d="M0 0 C3.15981926 3.63569566 4.60865689 7.67106407 6.25 12.125 C6.53101563 12.85332031 6.81203125 13.58164062 7.1015625 14.33203125 C7.79852285 16.19864289 8.40640593 18.09799084 9 20 C8.67 20.66 8.34 21.32 8 22 C3.21768992 15.68051882 -0.40769353 8.05194727 0 0 Z " fill="#420305" transform="translate(314,436)"/>
<path d="M0 0 C2.83857246 2.83857246 3.8151351 6.3059166 5.1875 10 C5.47302734 10.73734375 5.75855469 11.4746875 6.05273438 12.234375 C6.76499755 14.13374348 7.38924683 16.06560087 8 18 C7.67 18.66 7.34 19.32 7 20 C3.42988974 16.267612 2.89086558 11.9050011 2 7 C1.34 7 0.68 7 0 7 C0 4.69 0 2.38 0 0 Z " fill="#3D0305" transform="translate(254,282)"/>
<path d="M0 0 C1.4738814 4.60335561 -0.18580715 7.72808928 -2 12 C-2.43441406 13.051875 -2.86882812 14.10375 -3.31640625 15.1875 C-4.53409998 18.12939254 -5.76292157 21.06621717 -7 24 C-8.20171204 20.39486388 -7.70719075 19.56440728 -6.34765625 16.11328125 C-5.98349609 15.17548828 -5.61933594 14.23769531 -5.24414062 13.27148438 C-4.65922852 11.80678711 -4.65922852 11.80678711 -4.0625 10.3125 C-3.67642578 9.32443359 -3.29035156 8.33636719 -2.89257812 7.31835938 C-1.93667875 4.87550541 -0.97221707 2.43639559 0 0 Z " fill="#C62032" transform="translate(443,61)"/>
<path d="M0 0 C1.05276777 3.62064503 0.81049339 5.25282584 -0.6875 8.75 C-1.05746094 9.61882812 -1.42742187 10.48765625 -1.80859375 11.3828125 C-3.4444869 14.97641384 -5.18242476 18.49467632 -7 22 C-8 20 -8 20 -7.37915039 17.93701172 C-7.03875732 17.10959473 -6.69836426 16.28217773 -6.34765625 15.4296875 C-5.80141602 14.08583984 -5.80141602 14.08583984 -5.24414062 12.71484375 C-4.65922852 11.30912109 -4.65922852 11.30912109 -4.0625 9.875 C-3.67642578 8.93011719 -3.29035156 7.98523438 -2.89257812 7.01171875 C-1.93524154 4.67156265 -0.97080009 2.33459572 0 0 Z " fill="#C41E32" transform="translate(404,163)"/>
<path d="M0 0 C0.66 0 1.32 0 2 0 C-0.05764921 6.45353615 -2.42383482 12.7361263 -5 19 C-6.31538327 14.84228506 -5.34433068 12.1120703 -4 8 C-3.34 8 -2.68 8 -2 8 C-2.04125 7.236875 -2.0825 6.47375 -2.125 5.6875 C-2 3 -2 3 0 0 Z " fill="#330204" transform="translate(400,169)"/>
<path d="M0 0 C1.14981574 3.80323668 0.51561044 5.34470424 -1 9 C-0.979375 9.86625 -0.95875 10.7325 -0.9375 11.625 C-1 14 -1 14 -2.5 15.8125 C-2.995 16.204375 -3.49 16.59625 -4 17 C-4.99 16.67 -5.98 16.34 -7 16 C-6.55011719 15.46890625 -6.10023438 14.9378125 -5.63671875 14.390625 C-3.72530648 11.598777 -2.82820983 8.97225187 -1.8125 5.75 C-1.46832031 4.67234375 -1.12414062 3.5946875 -0.76953125 2.484375 C-0.51558594 1.66453125 -0.26164062 0.8446875 0 0 Z " fill="#2C0506" transform="translate(440,355)"/>
<path d="M0 0 C2.48659621 2.48659621 3.0343111 4.60483946 4.125 7.9375 C4.47820312 8.99839844 4.83140625 10.05929687 5.1953125 11.15234375 C6 14 6 14 6 17 C4 16 4 16 2.9296875 13.41796875 C2.58164062 12.35191406 2.23359375 11.28585937 1.875 10.1875 C1.52179688 9.12917969 1.16859375 8.07085937 0.8046875 6.98046875 C0 4 0 4 0 0 Z " fill="#3D0307" transform="translate(262,303)"/>
<path d="M0 0 C0.66 0 1.32 0 2 0 C4.45489316 5.12325529 5.50341703 9.33895411 6 15 C3.61874536 12.61874536 2.99813759 10.66142433 1.875 7.5 C1.52179688 6.5203125 1.16859375 5.540625 0.8046875 4.53125 C0 2 0 2 0 0 Z " fill="#9A111F" transform="translate(397,277)"/>
<path d="M0 0 C0.33 0 0.66 0 1 0 C1 1.98 1 3.96 1 6 C0.34 6 -0.32 6 -1 6 C-1 7.98 -1 9.96 -1 12 C-1.66 12 -2.32 12 -3 12 C-3.33 12.99 -3.66 13.98 -4 15 C-5 13 -5 13 -4.00390625 9.9609375 C-3.52824219 8.77757813 -3.05257813 7.59421875 -2.5625 6.375 C-2.08941406 5.18648438 -1.61632812 3.99796875 -1.12890625 2.7734375 C-0.75636719 1.85820313 -0.38382812 0.94296875 0 0 Z " fill="#CA2032" transform="translate(423,113)"/>
<path d="M0 0 C1.32 0.33 2.64 0.66 4 1 C3.979375 1.86625 3.95875 2.7325 3.9375 3.625 C3.99738956 6.85903648 4.39580933 9.82799897 5 13 C2.94876752 10.94876752 2.35852882 9.72994937 1.375 7.0625 C0.98441406 6.02802734 0.98441406 6.02802734 0.5859375 4.97265625 C0 3 0 3 0 0 Z " fill="#CE1A2D" transform="translate(295,385)"/>
<path d="M0 0 C0.66 0 1.32 0 2 0 C1.50769231 6.4 1.50769231 6.4 -1.0625 9.4375 C-2.0215625 10.2109375 -2.0215625 10.2109375 -3 11 C-3.33 9.02 -3.66 7.04 -4 5 C-3.67 5.66 -3.34 6.32 -3 7 C-2.34 7 -1.68 7 -1 7 C-0.67 4.69 -0.34 2.38 0 0 Z " fill="#A61A28" transform="translate(436,360)"/>
<path d="M0 0 C1.32830615 3.98491845 0.23204404 5.40048548 -1.4375 9.1875 C-1.91058594 10.27417969 -2.38367188 11.36085938 -2.87109375 12.48046875 C-3.42990234 13.72763672 -3.42990234 13.72763672 -4 15 C-4.90425521 12.49326721 -5.09182674 11.28321301 -4.2578125 8.7109375 C-3.69707031 7.55464844 -3.69707031 7.55464844 -3.125 6.375 C-2.75632812 5.59898437 -2.38765625 4.82296875 -2.0078125 4.0234375 C-1.33957266 2.68177767 -0.6703127 1.3406254 0 0 Z " fill="#B31925" transform="translate(461,301)"/>
<path d="M0 0 C1.953125 0.6484375 1.953125 0.6484375 4 2 C4.609375 4.6015625 4.609375 4.6015625 4.75 7.625 C4.80671875 8.62789062 4.8634375 9.63078125 4.921875 10.6640625 C4.94765625 11.43492188 4.9734375 12.20578125 5 13 C2.2946129 8.94191935 0 4.95110601 0 0 Z " fill="#320306" transform="translate(307,85)"/>
<path d="M0 0 C0.66 0 1.32 0 2 0 C1.71758359 1.46015291 1.42373386 2.91809793 1.125 4.375 C0.96257812 5.18710937 0.80015625 5.99921875 0.6328125 6.8359375 C0 9 0 9 -2 11 C-2 8.36 -2 5.72 -2 3 C-1.34 3 -0.68 3 0 3 C0 2.01 0 1.02 0 0 Z " fill="#AA0F1D" transform="translate(450,325)"/>
<path d="M0 0 C3.44216672 2.6598561 3.99504674 5.90288286 5 10 C3 10 3 10 1.375 8.9375 C-0.68369484 6.03661182 -0.19557733 3.45519943 0 0 Z " fill="#360104" transform="translate(243,256)"/>
<path d="M0 0 C0.33 0 0.66 0 1 0 C1.50423019 5.29441695 0.18923033 7.81413519 -3 12 C-3.66 11.67 -4.32 11.34 -5 11 C-3.35 7.37 -1.7 3.74 0 0 Z " fill="#3A050A" transform="translate(371,558)"/>
<path d="M0 0 C1.23593891 3.70781672 0.5678132 4.67510253 -0.9375 8.1875 C-1.31777344 9.08855469 -1.69804687 9.98960937 -2.08984375 10.91796875 C-2.54037109 11.94857422 -2.54037109 11.94857422 -3 13 C-4.44560748 8.43762177 -3.40342867 5.50574468 -2 1 C-1.34 0.67 -0.68 0.34 0 0 Z " fill="#2C0305" transform="translate(406,155)"/>
<path d="M0 0 C1.90389849 2.85584773 2.69462177 4.9311762 3.625 8.1875 C4.01558594 9.53908203 4.01558594 9.53908203 4.4140625 10.91796875 C4.60742188 11.60503906 4.80078125 12.29210937 5 13 C4.34 13 3.68 13 3 13 C2.49242138 11.58603098 1.99425075 10.16868271 1.5 8.75 C1.08234375 7.56664062 1.08234375 7.56664062 0.65625 6.359375 C0 4 0 4 0 0 Z " fill="#3D0205" transform="translate(325,464)"/>
<path d="M0 0 C1.5 1.0625 1.5 1.0625 3 3 C3.1875 6.6875 3.1875 6.6875 3 10 C2.01 10.33 1.02 10.66 0 11 C0.185625 10.113125 0.37125 9.22625 0.5625 8.3125 C0.98042484 5.14821189 0.80777742 3.05160358 0 0 Z " fill="#350205" transform="translate(429,404)"/>
<path d="M0 0 C1.79068573 2.6860286 2.66055791 4.6626589 3.625 7.6875 C3.88539063 8.49574219 4.14578125 9.30398438 4.4140625 10.13671875 C4.60742188 10.75160156 4.80078125 11.36648438 5 12 C4.34 12 3.68 12 3 12 C2.49166409 10.75336669 1.99368855 9.50250613 1.5 8.25 C1.2215625 7.55390625 0.943125 6.8578125 0.65625 6.140625 C0 4 0 4 0 0 Z " fill="#390103" transform="translate(297,393)"/>
<path d="M0 0 C1.47118907 3.82509158 0.45442741 6.28312995 -1 10 C-1.33 10.66 -1.66 11.32 -2 12 C-2.66 12 -3.32 12 -4 12 C-2.66666667 8 -1.33333333 4 0 0 Z " fill="#3B0408" transform="translate(428,415)"/>
<path d="M0 0 C0.66 0.33 1.32 0.66 2 1 C1.38302681 2.48253267 0.75616104 3.96095174 0.125 5.4375 C-0.22304688 6.26121094 -0.57109375 7.08492188 -0.9296875 7.93359375 C-2 10 -2 10 -4 11 C-3.5247412 9.35303396 -3.04468109 7.70745272 -2.5625 6.0625 C-2.29566406 5.14597656 -2.02882813 4.22945313 -1.75390625 3.28515625 C-1 1 -1 1 0 0 Z " fill="#2A0202" transform="translate(462,303)"/>
<path d="M0 0 C2.52588702 2.36292656 3.88820837 3.66462511 5 7 C4.01 8.485 4.01 8.485 3 10 C0 3.375 0 3.375 0 0 Z " fill="#D61B30" transform="translate(274,331)"/>
<path d="M0 0 C3 2 3 2 3.51171875 3.9453125 C3.67447917 5.96354167 3.83723958 7.98177083 4 10 C1.16625119 6.79663178 0.4794463 4.21912747 0 0 Z " fill="#CF1D2F" transform="translate(270,321)"/>
<path d="M0 0 C0.33 0 0.66 0 1 0 C1.33 1.98 1.66 3.96 2 6 C-0.475 7.485 -0.475 7.485 -3 9 C-2.01 6.03 -1.02 3.06 0 0 Z " fill="#300206" transform="translate(457,314)"/>
</svg>
